<svg xmlns="http://www.w3.org/2000/svg" width="1240" height="1240"><path d="M223.564 388.707c-.542 1.425-.428 1.54.56.56.684-.679.991-1.486.683-1.793-.308-.308-.867.247-1.243 1.233m-1.94 3.832c-.965 2.514-.681 3.163.498 1.136.584-1.004.851-2.036.593-2.293-.257-.258-.749.263-1.091 1.157M667 442.991c-1.925.434-5.646 1.093-8.269 1.463-6.02.851-5.194 2.546 1.24 2.546 19.4 0 42.806 10.122 60.251 26.056l2.997 2.737 6.281-2.94c3.454-1.616 8.589-3.304 11.411-3.75 2.822-.446 5.384-1.065 5.695-1.375 1.027-1.028-10.964-9.684-19.606-14.154-10.103-5.226-18.459-8.025-30-10.047-9.015-1.58-24.173-1.851-30-.536m-164 .623c-14.378 1.022-30.189 4.557-38.225 8.547-6.701 3.327-9.3 7.219-8.423 12.618.672 4.146 2.369 6.176 9.648 11.543 9.534 7.03 10.49 9.362 12.52 30.547 1.745 18.217 1.876 37.887.431 64.967-1.272 23.857-2.294 33.036-4.089 36.723-.749 1.539-3.995 4.855-7.213 7.37-8.834 6.902-10.399 10.991-6.642 17.359 2.521 4.272 9.593 8.182 18.589 10.277 5.732 1.335 11.402 1.53 33.404 1.148 28.932-.503 36.214-1.523 47.541-6.659 14.025-6.359 14.088-19.126.131-26.402-8.25-4.3-9.675-7.481-11.045-24.652-1.414-17.736-1.429-77.857-.022-90.169 1.562-13.675 4.004-18.218 12.36-23 7.808-4.468 9.035-6.002 9.035-11.3 0-5.584-3.765-10.593-10.674-14.199-6.808-3.553-37.813-6.104-57.326-4.718m146.5 8.27c-1.819.806-1.728.952 1 1.604 22.632 5.409 37.457 13.267 51.071 27.069l7.07 7.169 4.68-4.118c2.573-2.264 4.679-4.616 4.679-5.226 0-1.209-7.423-8.385-13-12.567-6.056-4.542-19.209-10.529-26.929-12.257-8.717-1.952-25.7-2.947-28.571-1.674m-11.25 7.612c-2.18 2.476-1.403 3.476 5 6.435 15.067 6.962 53.371 20.781 54.493 19.659 1.967-1.967-16.381-16.264-27.163-21.165-12.09-5.497-29.494-8.15-32.33-4.929m-22.206 5.327c-3.873 3.233-3.529 4.532 1.654 6.242 3.495 1.154 3.78 1.074 5.981-1.677 2.954-3.691 2.914-4.797-.226-6.227-3.456-1.575-3.561-1.551-7.409 1.662m13.561 6.198l-2.639 3.988 3.267 1.992c1.797 1.095 3.649 1.993 4.116 1.995.467.002 2.492.732 4.5 1.623 7.405 3.282 9.822 4.286 17.651 7.331 4.4 1.71 8.9 3.511 10 4 2.828 1.258 14.766 5.478 22.835 8.072l6.836 2.198 2.874-3.36c1.58-1.848 2.892-3.879 2.914-4.513.023-.634-3.222-2.111-7.209-3.282-3.987-1.172-8.375-2.612-9.75-3.2-1.375-.588-5.65-2.172-9.5-3.519-7.174-2.51-12.707-4.633-18-6.906-1.65-.709-5.7-2.28-9-3.492-5.337-1.961-13.923-5.559-15.628-6.55-.345-.201-1.816 1.429-3.267 3.623m-23.731 3.229c-3.287 2.725-10.312 12.178-14.463 19.461-3.998 7.016-8.048 17.805-11.559 30.789-1.702 6.295-1.828 33.374-.181 39 .644 2.2 1.734 6.025 2.422 8.5l1.252 4.5.811-5c4.176-25.733 14.404-56.321 26.841-80.273 3.852-7.417 7.003-13.669 7.003-13.892 0-.472-8.814-4.335-9.892-4.335-.399 0-1.404.563-2.234 1.25m136.058-.284c-2.513.449-6.899 1.997-9.748 3.441l-5.178 2.624 4.181 6.234c2.3 3.429 4.257 6.355 4.348 6.502.092.147 3.124-1.116 6.738-2.808 3.614-1.691 9.531-3.565 13.149-4.165 3.618-.599 6.565-1.586 6.548-2.192-.016-.606-1.704-3.005-3.75-5.332-4.166-4.736-8.078-5.77-16.288-4.304m-123.32 15.284c-12.608 23.153-21.16 46.382-26.049 70.75-.938 4.675-2.106 10.075-2.595 12-.489 1.925-.96 6.875-1.046 11-.144 6.846.136 8.005 3.21 13.297 3.069 5.282 4.078 6.142 11.368 9.691 8.633 4.202 20.621 7.71 29.641 8.672 6.381.681 18.505-.856 27.223-3.452l5.863-1.746-.162-12.569c-.171-13.268 1.118-26.712 3.379-35.256 4.821-18.218 12.841-37.791 20.197-49.291 2.936-4.589 3.11-5.233 1.579-5.86-.946-.388-6.67-2.41-12.72-4.494-11.974-4.124-27.973-10.355-39-15.191a3383.93 3383.93 0 00-10.151-4.436c-1.733-.751-3.847-1.365-4.698-1.365-.907 0-3.403 3.41-6.039 8.25m99.532-2.761c-2.327 2.103-3.855 4.2-3.394 4.661.967.967 15.511 4.923 16.064 4.369.846-.845-1.044-4.296-4.621-8.436l-3.817-4.418-4.232 3.824m36.356 4.184c-3.912.864-12.439 4.548-13.509 5.838-1.486 1.791-.906 2.033 11.574 4.826 14.468 3.238 21.435 4.145 21.435 2.791 0-.582-1.616-4-3.592-7.594L766.816 490l-5.158.116c-2.837.064-6.058.315-7.158.557m-41.491 5.542c.013 1.723 5.825 11.785 6.808 11.785.428 0 2.518-1.783 4.646-3.962l3.868-3.962-2.915-1.111c-1.604-.611-4.266-1.366-5.916-1.679-1.65-.312-3.788-.97-4.75-1.462-1.224-.625-1.747-.508-1.741.391m-8.941 3.689c-3.003 4.218-2.585 5.627 2.215 7.46 4.575 1.747 7.723 2.109 7.708.886-.019-1.477-6.05-11.25-6.943-11.25-.502 0-1.842 1.307-2.98 2.904m25.126 6.528c-3.046 1.941-4.841 3.668-4.215 4.055 1.962 1.213 14.289 4.466 15.076 3.979.423-.262-.091-2.829-1.143-5.707-1.052-2.877-1.912-5.35-1.912-5.495 0-1.04-3.311.304-7.806 3.168m12.806-.727c0 .516.709 3.019 1.575 5.562 1.518 4.453 1.765 4.659 6.75 5.637 22.632 4.435 27.788 5.316 28.272 4.832.304-.304.243-2.623-.137-5.154-.538-3.591-1.159-4.702-2.825-5.061-1.174-.252-8.21-1.655-15.635-3.118-7.425-1.462-14.513-2.878-15.75-3.147-1.237-.269-2.25-.067-2.25.449m-46.34 7.045c-10.524 16.687-17.718 35.161-22.683 58.25-1.652 7.685-2.544 34.531-1.175 35.378.585.361 4.02-.967 7.631-2.952l6.567-3.61.017-8.158c.05-23.066 8.704-50.636 22.089-70.374 2.692-3.969 4.894-7.437 4.894-7.708 0-.453-12.923-4.576-14.345-4.576-.347 0-1.694 1.688-2.995 3.75m28.194 3.729c-.298.298.098 3.8.88 7.781 1.743 8.878 1.14 26.595-1.2 35.24-3.572 13.197-13.414 29.161-23.415 37.982a2318.3 2318.3 0 01-5.443 4.786c-1.874 1.637-1.939 2.215-.886 7.88.626 3.362 1.384 6.359 1.686 6.661 1.218 1.218 10.038-4.505 18.456-11.976 11.004-9.765 21.652-27.745 25.664-43.333 1.95-7.579 2.568-28.118 1.103-36.68l-.801-4.68-6.199-1.458c-3.409-.801-6.898-1.747-7.751-2.101-.854-.354-1.796-.4-2.094-.102m-11.718 7.981c-3.86 5.375-12.718 23.768-14.763 30.657-3.814 12.84-7.05 38.883-4.833 38.883 1.485 0 6.998-5.016 10.417-9.478 12.577-16.416 18.491-38.749 15.066-56.899-.69-3.656-1.586-6.853-1.992-7.104-.406-.25-2.158 1.523-3.895 3.941m35.746-1.777c-.065.449-.021 6.967.097 14.483.188 11.935-.125 15.037-2.475 24.5-3.118 12.552-6.671 20.576-14.181 32.027-6.156 9.385-18.66 21.449-27.443 26.476-3.201 1.832-5.834 3.709-5.85 4.172-.108 3.053 11.973 16.659 14.792 16.659 2.704 0 16.575-6.745 23.915-11.629 25.221-16.781 40.237-41.43 45.167-74.14 1.391-9.222 1.378-12.971-.07-20.829l-1.166-6.329-4.584-.613c-4.834-.646-23.356-4.224-26.334-5.087-.962-.279-1.803-.14-1.868.31M679.5 611.365c-5.534 2.891-5.973 3.368-5.646 6.135.364 3.085 2.759 8.5 3.76 8.5.309 0 3.424-1.324 6.921-2.943l6.358-2.943-1.055-3.307c-.581-1.819-1.283-4.544-1.56-6.057-.619-3.369-1.238-3.325-8.778.615M605 612.82c0 3.271 12.466 10.4 25.043 14.322 6.381 1.99 9.478 2.315 21.457 2.254 7.795-.04 15.186-.563 16.675-1.181l2.675-1.109-1.643-5.137c-1.856-5.804-.453-5.532-15.207-2.949-10.364 1.814-29.912.26-38.5-3.061-7.994-3.091-10.5-3.84-10.5-3.139m81 16.103c-2.475.91-5.152 1.893-5.949 2.182-1.168.426-.977 1.192.986 3.961 3.878 5.47 5.266 6.928 8.541 8.968 2.681 1.669 3.844 1.792 9 .947 3.257-.533 6.034-.972 6.172-.975 1.044-.024-.25-2.425-2.798-5.194-1.677-1.822-4.264-5.224-5.75-7.56-2.949-4.638-3.553-4.775-10.202-2.329m-57.547 3.002c.414.669 3.743 2.575 7.4 4.236 3.656 1.662 7.419 3.424 8.363 3.917 6.122 3.198 36.631 8.409 38.469 6.57.373-.373-.691-2.134-2.364-3.913s-3.85-4.652-4.838-6.385l-1.796-3.149-13.629.539c-12.323.488-20.808-.204-29.957-2.444-1.729-.424-2.189-.248-1.648.629M922.5 663.888c-4.919 1.275-9.012 3.792-12.352 7.596-2.767 3.152-3.148 4.297-3.148 9.463 0 12.422-4.121 26.26-14.31 48.053-2.443 5.225-5.449 11.75-6.68 14.5-5.491 12.266-12.102 25.199-14.012 27.413-1.146 1.327-4.876 3.806-8.29 5.508l-6.208 3.095v4.884c0 4.137.411 5.191 2.688 6.891 3.489 2.605 9.721 3.576 23.426 3.649 13.601.073 20.703-1.182 24.93-4.406 6.404-4.884 5.16-10.802-3.033-14.426-5.122-2.266-5.837-4.827-2.543-9.108l1.924-2.5 17.804.011c19.495.011 22.695.483 24.36 3.594 1.85 3.457.382 6.284-4.495 8.653-5.512 2.678-6.726 5.923-4.065 10.864 3.299 6.127 7.285 6.878 36.504 6.878 23.892 0 25.79-.134 30.095-2.125 6.33-2.928 8.905-5.937 8.905-10.406 0-3.836-.031-3.862-10-8.345-2.809-1.263-6.314-7.859-20.433-38.463-15.029-32.576-29.251-57.164-36.998-63.966-7.183-6.307-16.739-9.208-24.069-7.307m-506 2.039c-10.178 2.257-15.301 4.369-23.905 9.855-18.653 11.895-28.801 30.76-28.896 53.718-.109 26.456 13.646 48.303 37.414 59.426 31.36 14.676 70.97 4.837 90.453-22.467 5.329-7.467 7.094-11.487 9.56-21.772 2.379-9.918 2.366-16.5-.051-26.62-7.939-33.24-34.227-54.241-67.575-53.984-4.95.039-12.6.868-17 1.844m146.715.571c-13.545 3.5-22.099 8.401-32.294 18.502-9.106 9.023-15.367 18.918-18.031 28.5-1.971 7.088-1.788 27.514.305 34.123 6.553 20.697 23.919 38.081 44.602 44.651 18.115 5.753 34.867 4.521 52.803-3.884 2.804-1.315 6.179-2.412 7.5-2.438 4.544-.091 9.335-3.369 13.059-8.935 6.225-9.304 7.77-19.296 3.768-24.382-3.064-3.895-7.105-3.509-13.335 1.276-6.337 4.868-14.757 7.412-24.609 7.438-10.696.028-16.963-2.436-24.225-9.522-17.678-17.251-19.131-52.83-2.417-59.213 8.991-3.434 20.68-.868 28.864 6.335 2.425 2.135 6.565 7.531 9.198 11.99C613.76 720.01 616.475 722 623.5 722c11.076 0 16.505-6.654 16.494-20.218-.006-8.255-1.142-13.492-4.183-19.282-4.722-8.989-9.774-12.25-16.394-10.583-3.918.986-5.088.796-12.013-1.955-16.562-6.579-28.51-7.516-44.189-3.464m137.705-.488c-19.198 4.723-35.516 16.475-45.115 32.49-20.775 34.66-1.937 81.002 38.072 93.661 17.893 5.661 34.989 4.611 51.832-3.185 3.537-1.637 7.244-2.976 8.239-2.976 2.9 0 8.371-2.631 10.734-5.163 1.2-1.285 3.609-5.219 5.354-8.742 3.956-7.985 4.439-14.63 1.365-18.769-3.268-4.4-7.141-4.249-13.45.526-6.671 5.049-15.012 7.485-25.451 7.433-9.689-.048-15.026-1.949-22.056-7.859-7.297-6.132-13.911-19.212-15.229-30.111-.989-8.179-.143-17.633 1.941-21.695 5.013-9.769 15.657-12.985 28.43-8.591 7.381 2.54 12.993 7.883 18.632 17.738 4.936 8.626 8.474 11.233 15.249 11.233 6.369 0 11.157-2.468 14.362-7.404 2.43-3.742 2.654-4.931 2.593-13.763-.06-8.798-.352-10.237-3.245-16-5.707-11.37-10.605-14.872-18.011-12.878-3.596.969-4.816.79-10.371-1.52-15.547-6.466-29.756-7.899-43.875-4.425m101.08.41c-10.662 1.893-15.709 3.581-18.537 6.202-2.921 2.707-3.26 7.289-.713 9.65 11.526 10.68 10.925 9.834 12.232 17.228 1.554 8.791.88 63.138-.851 68.598-.716 2.256-3.003 5.167-6.136 7.809-5.631 4.748-6.426 8.004-3.014 12.342 3.504 4.454 9.167 5.954 24.519 6.494 22.267.784 37.292-1.689 42.616-7.013 4.15-4.15 3.956-8.582-.55-12.538-1.889-1.659-4.336-3.302-5.439-3.652-4.121-1.308-4.627-5.957-4.627-42.54 0-38.635.255-40.303 6.671-43.554 5.204-2.637 6.829-4.508 6.824-7.851-.008-4.757-3.68-8.53-10.021-10.297-7.523-2.095-33.163-2.619-42.974-.878m-568.931.842c-3.339.865-7.069 5.054-7.069 7.939 0 3.285 1.773 5.488 7.012 8.711 2.774 1.707 5.593 4.338 6.266 5.846 2.43 5.452.653 63.107-2.382 77.282-1.028 4.805-3.893 8.849-7.694 10.864-3.457 1.832-4.529 5.604-2.693 9.474 3.18 6.7 2.585 6.622 50.185 6.622 47.666 0 49.626-.21 60.953-6.545 7.183-4.017 13.337-10.908 16.865-18.887 3.63-8.208 3.543-19.54-.21-27.203-2.89-5.902-8.928-11.639-16.052-15.251-2.361-1.197-4.25-2.874-4.25-3.772 0-.89 1.822-3.595 4.049-6.01 5.779-6.271 7.951-11.96 7.951-20.832 0-9.08-2.203-14.644-7.801-19.701-9.95-8.989-11.464-9.221-60.443-9.263-22.959-.02-43.069.307-44.687.726M286.2 686.2c-1.264 1.264-1.775 28.139-.593 31.218.723 1.884 6.102 2.128 9.798.443 7.792-3.55 8.664-22.638 1.367-29.935-3.13-3.13-8.32-3.978-10.572-1.726m135.269 5.862c-6.007 1.747-10.177 7.674-11.144 15.84-1.106 9.339 4.41 30.607 11.437 44.098 3.989 7.658 7.361 11.475 12.448 14.092 6.698 3.445 12.428 1.88 17.488-4.774 2.731-3.591 2.799-3.99 2.679-15.751-.108-10.647-.492-13.185-3.26-21.567-6.224-18.843-12.727-28.657-20.815-31.413-2.562-.873-4.916-1.546-5.23-1.497-.315.05-1.936.487-3.603.972m499.116 25.188c-2.22 3.417-7.585 17.902-7.585 20.477 0 2.243.167 2.273 12.5 2.273 14.647 0 14.498.165 9.2-10.18-4.583-8.949-8.884-14.773-10.927-14.799-.95-.011-2.385.992-3.188 2.229m-633.91 22.197c-1.649 1.25-1.794 2.799-1.5 16.059.316 14.247.398 14.734 2.813 16.688 1.995 1.613 3.369 1.892 6.927 1.404 7.817-1.071 11.085-5.903 11.085-16.391 0-8.573-2.889-14.834-8.054-17.455-4.11-2.086-8.756-2.211-11.271-.305m412.075 333.215c.688.278 1.813.278 2.5 0 .688-.277.125-.504-1.25-.504s-1.937.227-1.25.504" fill="undefined" fill-rule="evenodd"/></svg>