<svg xmlns="http://www.w3.org/2000/svg" width="1240" height="1240"><path d="M862 229.43c0 .275.9.981 2 1.57 1.1.589 2 .845 2 .57s-.9-.981-2-1.57c-1.1-.589-2-.845-2-.57m-487.493 2.559c-.35.566.051.734.941.393 1.732-.665 2.049-1.382.611-1.382-.518 0-1.216.445-1.552.989M223.564 388.707c-.542 1.425-.428 1.54.56.56.684-.679.991-1.486.683-1.793-.308-.308-.867.247-1.243 1.233M666.5 443.13c-11.222 1.662-12.556 1.971-12.05 2.789.278.451 4.228 1.135 8.778 1.522 14.151 1.202 26.764 5.188 39.093 12.354 6.15 3.575 16.106 11.303 18.757 14.56 1.548 1.902 1.703 1.878 8.02-1.232 3.543-1.744 8.804-3.544 11.692-4.001 2.888-.456 5.505-1.084 5.816-1.394.31-.311-2.061-2.649-5.271-5.196-6.399-5.079-20.178-12.144-30.335-15.556-12.952-4.35-30.723-5.886-44.5-3.846m-167 .826c-11.139 1.137-25.885 4.343-32.964 7.166-11.736 4.679-14.159 15.715-4.914 22.378 13.196 9.51 14.163 11.012 15.989 24.819 1.645 12.447 1.869 69.564.352 90.124-1.275 17.295-2.686 21.583-8.395 25.51-2.342 1.611-5.678 4.547-7.413 6.523-7.829 8.918-.493 18.875 16.932 22.983 9.024 2.127 48.291 2.127 61.508 0 21.869-3.519 31.702-10.077 30.082-20.063-.782-4.819-3.354-7.75-10.342-11.788-7.423-4.288-8.854-6.797-10.532-18.466-1.814-12.611-1.783-93.494.039-101.642 1.844-8.249 5.411-14.078 10.068-16.454 9.204-4.696 12.522-10.139 10.09-16.556-2.529-6.672-8.939-10.783-20.343-13.045-8.653-1.717-39.083-2.62-50.157-1.489m150 7.987c-1.666.669-1.248 1 2.5 1.984 17.065 4.479 24.435 7.542 34.817 14.466 3.675 2.452 10.076 7.817 14.224 11.922l7.54 7.463 4.859-4.275 4.859-4.275-2.041-2.866c-5.146-7.226-19.87-16.913-31.712-20.863-11.343-3.784-29.81-5.657-35.046-3.556m-11.95 8.289c-1.524 2.176-1.422 2.303 4.078 5.084 5.779 2.922 16.573 7.244 33.372 13.362 25.004 9.106 26.25 9.199 18 1.348-9.793-9.32-19.936-15.452-30.5-18.439-3.3-.933-7.382-2.122-9.071-2.642s-5.601-.945-8.693-.945c-4.684 0-5.884.373-7.186 2.232m-21.784 4.774c-3.208 2.952-3.231 3.033-1.266 4.543 3.902 3.001 6.52 2.953 9.069-.164 3.029-3.705 3.009-4.801-.116-6.224-3.583-1.633-4.024-1.527-7.687 1.845m13.856 5.989c-1.442 2.179-2.622 4.149-2.622 4.376 0 .555 18.402 8.544 29 12.589 4.675 1.785 9.4 3.618 10.5 4.073 3.188 1.321 20.589 7.491 25.268 8.96 3.918 1.229 4.393 1.182 5.784-.577 2.998-3.79 4.712-6.485 4.333-6.814-.212-.185-4.885-1.753-10.385-3.484-5.5-1.732-10.9-3.567-12-4.077-1.1-.511-5.303-2.084-9.341-3.496a296.5 296.5 0 0 1-20.81-8.165c-1.733-.759-3.407-1.38-3.72-1.38-.505 0-11.148-4.676-12.757-5.605-.345-.199-1.808 1.421-3.25 3.6m-29.488 9.74c-9.819 12.384-17.395 28.761-20.574 44.473-2.923 14.442-1.109 44.31 2.953 48.648 1.041 1.112 1.398.391 1.977-4 2.616-19.83 15.27-58.441 25.049-76.436 2.068-3.806 4.773-8.767 6.01-11.024 1.237-2.258 1.957-4.508 1.6-5-.853-1.178-7.845-4.396-9.55-4.396-.733 0-4.092 3.481-7.465 7.735M742.5 473.88c-4.071.726-15.5 5.561-15.5 6.556 0 .301 1.563 2.595 3.474 5.098 1.911 2.504 3.844 5.212 4.295 6.018.693 1.239 1.652 1.064 6.199-1.129 2.958-1.427 8.788-3.312 12.955-4.189 4.167-.876 7.75-1.723 7.962-1.882.488-.366-2.007-4.034-5.143-7.564-2.704-3.044-7.73-4.07-14.242-2.908m-121.713 10.87c-8.693 13.151-23.01 49.295-26.694 67.391-.488 2.397-1.785 8.634-2.881 13.859-2.861 13.632-3.609 22.374-2.155 25.181 5.529 10.677 10.962 14.897 24.84 19.293 12.911 4.091 21.811 5.113 31.87 3.661 4.803-.693 11.32-2.02 14.482-2.948l5.748-1.687.002-13.872c.001-18.453 2.119-31.85 7.662-48.482 4.256-12.768 12.236-30.115 16.747-36.403 1.217-1.695 1.615-3.094 1.035-3.631-.519-.481-4.993-2.303-9.943-4.049-14.961-5.276-35.417-13.189-45.895-17.753-5.442-2.37-10.444-4.31-11.117-4.31-.672 0-2.338 1.688-3.701 3.75m97.325 1.768c-3.265 2.95-3.901 4.031-3.004 5.112.625.753 2.094 1.375 3.264 1.381 1.171.006 4.34.682 7.043 1.502 2.703.82 5.107 1.299 5.341 1.064.885-.885-.962-4.225-4.667-8.439l-3.836-4.361-4.141 3.741m35.388 4.427c-5.191 1.28-13.5 5.252-13.5 6.454 0 1.189 19.238 5.996 28.863 7.212 6.247.788 6.261.666 1.035-8.983L766.85 490l-5.175.102c-2.846.057-6.525.436-8.175.843m-40.5 4.998c0 1.66 5.351 12.057 6.205 12.057 1.369 0 8.802-7.18 8.29-8.008-.269-.435-2.853-1.346-5.742-2.024-2.889-.678-6.041-1.639-7.003-2.135-1.109-.573-1.75-.532-1.75.11m-9.256 4.059c-1.509 2.1-2.744 4.099-2.744 4.443 0 .344 2.062 1.51 4.583 2.591 4.526 1.939 8.417 2.557 8.417 1.336 0-.911-5.994-11.251-6.817-11.759-.382-.236-1.929 1.289-3.439 3.389m25.356 6.405c-4.793 2.984-5.186 3.474-3.5 4.355 3.036 1.585 13.561 4.41 14.169 3.802.646-.645-1.687-8.477-3.072-10.314-1.288-1.709-1.47-1.658-7.597 2.157m12.9-.71c0 2.773 3.389 10.286 4.83 10.705 3.087.899 16.566 3.412 27.573 5.142l4.903.77-.697-4.358c-.827-5.172-2.1-6.952-4.981-6.967-1.749-.008-16.245-2.835-28.878-5.63-1.513-.335-2.75-.183-2.75.338m-48.197 9.57c-14.49 24.43-22.793 53.17-22.8 78.924-.002 6.43.368 11.92.821 12.2.454.281 3.716-1.002 7.25-2.849l6.426-3.359.22-6.342c.965-27.844 7.934-50.795 21.845-71.939 3.615-5.496 4.839-8.141 4.056-8.766-1.109-.885-11.64-4.152-13.275-4.119-.465.01-2.51 2.823-4.543 6.25m30.794 8.983c2.815 15.724 1.142 30.669-5.066 45.25-4.91 11.533-10.588 19.543-20.005 28.219-4.139 3.815-7.526 7.382-7.526 7.927 0 2.798 3.239 11.35 4.289 11.322 2.06-.055 13.553-8.429 19.613-14.291 6.694-6.475 14.108-17.129 17.671-25.39a1406.33 1406.33 0 0 1 3.379-7.787c.487-1.1 1.709-5.15 2.717-9 1.97-7.532 2.53-26.914 1.03-35.681l-.801-4.682-6.896-1.568c-10.422-2.371-9.908-2.718-8.405 5.681m-12.192-.108c-1.699 2.397-4.558 7.283-6.354 10.858a1516.025 1516.025 0 0 1-4.55 9c-1.55 3.012-6.884 20.53-8.373 27.5-.913 4.271-1.684 17.266-1.261 21.25.231 2.173 1.651 1.39 6.899-3.802 6.853-6.783 13.531-18.494 16.79-29.448 2.192-7.365 2.68-10.998 2.687-20 .006-6.603-.542-12.742-1.369-15.358l-1.38-4.358-3.089 4.358m35.067 14.551c.016 14.677-.283 17.884-2.357 25.307-2.647 9.469-9.467 23.879-14.908 31.5-6.495 9.096-18.758 20.404-27.456 25.317-2.612 1.476-4.749 3.139-4.75 3.696-.002 1.948 6.996 11.383 10.328 13.924 3.651 2.785 4.79 3.039 7.435 1.653.955-.5 4.058-1.809 6.897-2.908 12.898-4.992 31.113-20 40.872-33.676 6.107-8.558 13.061-23.733 15.691-34.239 1.779-7.108 2.202-11.731 2.235-24.433.023-8.616-.211-15.918-.52-16.227-.308-.309-3.458-.997-7-1.53-7.718-1.161-21.642-3.78-24.463-4.602-1.975-.576-2.023-.187-2.004 16.218M679.5 611.168c-3.3 1.689-6.193 3.248-6.429 3.464-.719.658 2.969 11.368 3.914 11.368.486 0 3.651-1.2 7.034-2.667 5.67-2.46 6.103-2.869 5.546-5.25-.333-1.421-.88-4.27-1.217-6.333-.336-2.062-1.115-3.728-1.73-3.702-.615.027-3.818 1.43-7.118 3.12m-74.5 2.345c0 3.067 14.998 11.206 25.662 13.925 8.817 2.248 22.553 2.965 31.77 1.657 4.362-.619 8.035-1.231 8.16-1.36.126-.129-.509-2.635-1.411-5.568-1.855-6.033-.409-5.733-15.181-3.147-7.385 1.293-24.012.715-31.5-1.095-2.75-.665-7.812-2.231-11.25-3.481-4.767-1.734-6.25-1.955-6.25-.931m80 15.658c-3.025 1.099-5.646 2.143-5.824 2.321-.726.724 2.869 6.211 5.989 9.138 5.23 4.908 6.84 5.428 13.459 4.344 3.232-.529 5.988-.965 6.126-.968 1.13-.026-.454-2.485-4.176-6.481-2.434-2.614-4.964-6.051-5.621-7.639-1.387-3.348-2.485-3.427-9.953-.715m-57.563 2.727c.971 1.571 11.881 6.551 21.213 9.684 11.055 3.711 33.35 6.769 33.35 4.574 0-.465-1.1-2.125-2.444-3.69-1.345-1.564-3.257-4.376-4.25-6.247-1.769-3.332-1.91-3.39-6.806-2.804-16.49 1.973-20.015 1.787-38.405-2.022-2.543-.526-3.216-.399-2.658.505m292.789 33.039c-10.177 3.467-13.009 7.71-14.201 21.275-.994 11.315-4.138 22.541-9.691 34.605a5617.295 5617.295 0 0 0-8.99 19.683c-8.311 18.289-13.617 28.501-16.03 30.85-1.202 1.171-4.774 3.484-7.937 5.14-8.925 4.671-9.489 11.207-1.377 15.96 3.178 1.861 5.157 2.05 21.5 2.05 16.76 0 18.29-.155 22.217-2.253 4.729-2.528 6.283-4.76 6.283-9.026 0-3.266-2.087-5.506-6.429-6.9-3.964-1.272-5.244-3.504-4.016-6.997 1.74-4.949 4.187-5.476 23.445-5.049 10.953.242 18.337.835 19.738 1.585 4.806 2.572 3.688 9.448-1.728 10.638-8.717 1.914-7.583 12.572 1.719 16.161 4.176 1.612 7.886 1.841 29.771 1.841 27.368 0 30.07-.428 36.086-5.709 2.567-2.254 3.414-3.803 3.414-6.24 0-3.902-2.055-5.926-7.716-7.6-3.879-1.148-4.556-1.892-8.5-9.349-2.356-4.456-4.454-8.552-4.662-9.102-.923-2.444-9.872-21.663-18.626-40-8.32-17.427-18.259-34.233-25.04-42.339-3.269-3.909-9.649-7.801-15.61-9.526-6.804-1.968-6.969-1.964-13.62.302M424 665.122c-16.188 1.258-30.832 7.864-41.933 18.915-15.899 15.826-22.277 39.208-16.902 61.963 1.414 5.987 7.932 19.348 12.31 25.234 6.24 8.389 19.299 17.109 31.689 21.159 25.099 8.205 56.509 1.095 74.365-16.835 7.712-7.744 13.729-17.518 16.605-26.975 2.378-7.816 2.517-24.283.278-32.922-3.167-12.221-11.01-25.296-20.376-33.967-14.708-13.617-31.22-18.501-56.036-16.572m148-.054c-24.935 2.227-49.109 20.781-57.907 44.443-3.213 8.641-3.974 24.956-1.62 34.717 3.026 12.549 7.993 21.192 18.027 31.372 9.802 9.945 20.148 15.452 34.655 18.445 15.719 3.244 25.996 2.25 41.845-4.048 5.225-2.076 11.352-4.275 13.615-4.885 6.095-1.646 8.918-4.388 12.982-12.612 3.25-6.575 3.606-8.041 3.185-13.117-.833-10.041-6.556-12.103-15.19-5.472-6.3 4.839-14.614 7.343-24.557 7.395-10.365.055-16.711-2.243-23.614-8.552-5.979-5.465-10.351-12.968-13.109-22.497-2.045-7.069-2.908-21.061-1.392-22.577.594-.594 1.08-1.768 1.08-2.609 0-3.149 6.444-11.031 10.27-12.562 8.325-3.331 19.871-.912 28.193 5.907 2.544 2.085 6.248 6.853 8.917 11.481 5.952 10.318 8.253 12.103 15.607 12.103 4.283 0 6.547-.565 9.023-2.25 5.87-3.995 7.416-7.047 7.842-15.482.648-12.834-2.346-21.898-9.626-29.148-3.328-3.314-3.526-3.37-10.06-2.841-5.571.451-7.493.163-11.7-1.757-10.914-4.981-22.449-6.706-36.466-5.454m136 0c-13.188 1.178-29.887 8.634-39.542 17.655-5.111 4.776-12.062 13.566-14.398 18.208-5.286 10.503-6.56 16.149-6.56 29.069 0 11.2.289 13.28 2.777 19.996 4.058 10.953 8.286 17.515 16.739 25.978 10.433 10.446 22.933 16.576 38.957 19.103 12.664 1.998 26.899-.159 39.477-5.981 3.394-1.571 8.093-3.181 10.442-3.578 5.728-.967 10.035-4.97 13.918-12.934 3.915-8.03 4.323-15.184 1.122-19.68-2.994-4.205-6.942-3.907-13.34 1.007-9.295 7.14-26.028 9.65-37.301 5.597-16.468-5.922-28.751-30.119-25.287-49.812 2.094-11.903 9.25-18.691 19.708-18.694 11.908-.004 23.365 7.817 29.711 20.283 3.931 7.721 7.968 10.715 14.445 10.715 6.364 0 9.286-1.133 13.031-5.052 8.492-8.886 5.505-31.221-5.591-41.81-3.377-3.222-3.781-3.343-9.666-2.891-5.026.385-7.414-.02-13.142-2.232-12.954-5.001-21.523-6.195-35.5-4.947m91.5 1.798c-14.407 2.674-19.842 6.652-18.172 13.303.338 1.348 2.657 3.918 5.154 5.71 6.641 4.77 7.678 7.517 8.81 23.337 1.207 16.878-.271 56.993-2.239 60.784-.714 1.375-3.268 4.341-5.676 6.591-4.943 4.62-5.554 7.643-2.366 11.696 4.042 5.138 9.48 6.219 30.989 6.157 26.007-.075 35.064-2.356 38.059-9.586 1.826-4.408.248-7.821-5.248-11.358-2.564-1.65-5.258-4.35-5.987-6-1.018-2.306-1.324-11.215-1.324-38.5 0-33.991.087-35.649 2.051-39 1.128-1.925 3.941-4.546 6.25-5.825 2.563-1.419 4.437-3.277 4.812-4.769.809-3.223-1.209-7.912-4.268-9.916-6.726-4.406-33.73-5.8-50.845-2.624m-566.149.332c-4.189 1.12-7.351 4.729-7.351 8.387 0 3.404 2.545 6.172 8.814 9.584 5.02 2.733 5.519 6.574 4.85 37.331-.523 24.06-2.27 44.799-4.189 49.73-.37.951-2.227 2.69-4.125 3.863-6.949 4.294-7.994 10.074-2.718 15.031l2.527 2.376 44.027.28c49.188.314 50.903.139 62.572-6.387 15.891-8.887 23.649-29.372 16.901-44.629-2.522-5.702-10.836-14.074-16.239-16.351-5.384-2.269-5.909-3.78-2.629-7.573a564.089 564.089 0 0 0 4.763-5.581c5.773-6.899 7.211-20.926 3.06-29.84-2.918-6.269-9.375-11.749-17.268-14.657-5.633-2.075-7.389-2.155-48.115-2.208-23.247-.03-43.444.26-44.88.644m52.131 20.052c-.306 1.237-.427 8.775-.269 16.75l.287 14.5 3.369.322c8.351.799 12.466-4.593 12.459-16.322-.008-11.036-4.239-17.434-11.559-17.478-3.047-.018-3.833.39-4.287 2.228M420 692.4c-4.87 1.766-9.195 8.911-9.799 16.188-.591 7.134 2.782 24.093 6.377 32.063.782 1.733 1.422 3.478 1.422 3.876 0 1.493 6.167 12.79 8.783 16.089 3.138 3.958 9.539 7.386 13.783 7.38 4.066-.005 8.698-3.073 11.539-7.643 2.079-3.345 2.387-5.039 2.338-12.853-.115-18.162-7.501-39.917-16.888-49.741-5.112-5.35-11.881-7.417-17.555-5.359m500.822 24.35c-2.049 2.411-9.009 21.139-8.288 22.305.321.52 6.239.945 13.15.945h12.566l-.596-2.979c-.7-3.501-7.887-16.53-10.907-19.771-2.521-2.706-3.947-2.827-5.925-.5M286.75 739.023c-1.535.944-1.75 2.835-1.75 15.392 0 12.968.195 14.563 2.073 16.95 1.634 2.078 2.935 2.635 6.155 2.635 5.71 0 10.102-3.534 11.762-9.465 2.364-8.443-.435-20.815-5.454-24.104-2.899-1.899-10.607-2.748-12.786-1.408m722.874 124.516c-.965 2.514-.681 3.163.498 1.136.584-1.004.851-2.036.593-2.293-.257-.258-.749.263-1.091 1.157" fill="undefined" fill-rule="evenodd"/></svg>