<svg xmlns="http://www.w3.org/2000/svg" width="1240" height="1240"><path d="M577 547.583c-8.104 1.437-15.158 3.844-16.028 5.47-1.563 2.919-1.201 3.816 3.165 7.848 3.323 3.068 4.296 4.783 4.941 8.709 1.023 6.231 1.054 29.773.051 38.807-.677 6.1-1.143 7.232-3.948 9.573-3.603 3.008-4.19 6.806-1.431 9.251 2.933 2.599 12.878 4.073 22.802 3.379 11.587-.81 17.242-2.463 19.704-5.761 2.376-3.182 1.266-6.02-3.271-8.367-1.672-.864-3.284-2.715-3.711-4.26-.415-1.503-.759-12.182-.764-23.732-.01-22.006.757-26.815 4.466-27.992.968-.308 2.566-1.449 3.551-2.538 2.505-2.768.621-6.592-4.252-8.629-3.66-1.529-20.112-2.673-25.275-1.758m67 .275c-2.113.665-1.718.866 2.547 1.298 5.846.592 15.008 4.531 20.314 8.734 3.374 2.672 3.9 2.804 6.164 1.551 1.361-.754 3.263-1.386 4.225-1.406 4.624-.093-.577-4.603-9.332-8.09-5.792-2.307-19.436-3.498-23.918-2.087m1.15 5.057c6.173 1.974 10.43 4.587 15.92 9.769 3.57 3.371 3.571 3.371 5.415 1.333 1.799-1.988 1.787-2.099-.511-4.545-1.295-1.378-5.041-3.848-8.324-5.489-4.733-2.365-7.231-2.972-12.06-2.929l-6.09.054 5.65 1.807m-9.648 1.082c-.4.648-.339 1.53.135 1.962 1.367 1.243 23.437 9.3 23.982 8.756.809-.809-7.82-7.213-12.119-8.994-5.727-2.374-11.118-3.148-11.998-1.724m-9.492 2.491c-1.003 1.209-.919 1.61.445 2.133 1.97.756 4.071-.961 3.099-2.534-.923-1.493-2.081-1.362-3.544.401m5.619 2.036c-.346.902-.629 1.844-.629 2.093 0 .642 7.947 4.022 18.645 7.931 8.676 3.169 9.228 3.25 10.734 1.586 1.492-1.648.788-2.058-11.646-6.782-7.278-2.766-13.962-5.352-14.854-5.748-1.06-.47-1.839-.151-2.25.92m-13.289 6.228c-6.573 9.875-8.974 18.481-7.852 28.147 1.021 8.792 1.965 8.878 3.955.361 2.024-8.666 6.44-20.484 10.157-27.184 1.899-3.424 2.165-4.608 1.177-5.235-2.595-1.647-4.353-.723-7.437 3.911m56.16-3.574c-1.1.614-2.148 1.237-2.33 1.383-.181.146.41 1.395 1.314 2.774 1.574 2.402 1.789 2.449 5.048 1.087 1.872-.782 4.318-1.422 5.436-1.422 2.347 0 2.503-.795.64-3.25-1.516-1.997-7.001-2.307-10.108-.572m-49.783 9.572c-4.963 10.691-7.629 19.132-8.989 28.464-1.432 9.819-.413 12.192 6.775 15.782 3.895 1.944 6.541 2.496 11.997 2.5 3.85.002 8.237-.342 9.75-.765 2.691-.753 2.75-.933 2.75-8.356 0-9.212 2.018-17.515 6.573-27.047 1.885-3.944 3.427-7.395 3.427-7.668 0-.273-3.038-1.505-6.75-2.738s-9.604-3.519-13.093-5.082c-3.489-1.562-6.906-2.84-7.593-2.84-.687 0-2.868 3.487-4.847 7.75m42.973-5.314c-1.978 1.5-1.583 1.955 2.56 2.945 3.028.723 3.245.413 1.715-2.447-1.216-2.271-1.841-2.344-4.275-.498m12.81 2.47c-2.75 1.275-3.531 2.035-2.5 2.432 2.099.808 12.431 2.553 12.824 2.166.178-.175-.396-1.71-1.276-3.411-1.839-3.557-3.472-3.771-9.048-1.187m-18.38 2.869c-.862 1.611-.62 2.132 1.421 3.062 2.861 1.303 3.314-.125 1.007-3.17-1.342-1.769-1.425-1.766-2.428.108M666 569.7c0 .505.62 1.766 1.378 2.802 1.31 1.791 1.464 1.799 3.119.144.958-.958 1.574-1.908 1.37-2.112-.948-.948-5.867-1.647-5.867-.834m6.441 3.725c-1.869 1.373-1.834 1.466.948 2.528 3.405 1.3 4.026.929 3.135-1.878-.778-2.451-1.478-2.562-4.083-.65m5.559.953c0 2.026 1.997 3.273 6.5 4.06 2.2.384 5.051.951 6.337 1.26 2.001.482 2.288.226 2-1.781-.286-1.988-1.247-2.532-6.337-3.586-7.76-1.608-8.5-1.604-8.5.047m-20.332 3.418c-5.412 8.72-8.606 19.983-8.644 30.48l-.024 6.775 3-1.551c2.671-1.381 3-2.054 3-6.131 0-8.003 5.557-24.516 10.087-29.974.696-.838.099-1.483-2.072-2.24-2.882-1.005-3.173-.861-5.347 2.641m13.151 7.454c.465 9.414-2.192 16.77-8.667 23.997-3.277 3.657-4.602 5.936-4.36 7.503.46 2.983 1.12 2.861 6.417-1.184 8.268-6.312 13.752-17.808 13.779-28.882.016-6.251-1.327-8.684-4.793-8.684h-2.734l.358 7.25m-7.048-1.527c-4.878 9.046-8.631 25.277-5.844 25.277 1.81 0 7.082-7.511 8.708-12.406 1.813-5.46 2.209-15.15.681-16.678-.626-.626-1.882.723-3.545 3.807m16.052 5.102c-.553 11.557-4.254 19.626-12.428 27.097-3.056 2.793-5.97 5.078-6.476 5.078-1.678 0-.953 1.93 1.944 5.173l2.863 3.204 5.608-2.837c14.515-7.344 25.396-26.516 23.108-40.715-.551-3.415-.887-3.719-4.767-4.303-2.296-.346-5.356-.853-6.8-1.128l-2.625-.498-.427 8.929M652.25 616.22c-1.314.634-2.25 1.993-2.25 3.266 0 3.159.904 3.615 3.996 2.016 2.173-1.124 2.642-1.946 2.257-3.96-.538-2.811-.761-2.885-4.003-1.322M622 617.936c0 2.122 9.667 5.53 16.745 5.901 8.494.447 10.278-.031 9.613-2.575-.433-1.657-1.597-1.864-10.672-1.892-5.602-.017-11.423-.546-12.936-1.176-1.513-.629-2.75-.746-2.75-.258m31.75 5.753c-2.042.534-2.143 1.248-.468 3.311 2.51 3.091 4.55 4.08 7.096 3.441l2.569-.644-2.592-3.399c-2.56-3.356-3.171-3.606-6.605-2.709m-21.571 2.463c2.549 1.654 14.067 4.848 17.483 4.848h3.451l-1.627-2.75c-1.586-2.679-1.872-2.753-11.127-2.853-5.602-.06-8.958.249-8.18.755m-90.957 13.318c-10.317 3.221-17.553 11.983-18.823 22.793-2.616 22.257 21.574 37.405 42.646 26.706 8.987-4.564 16.059-17.173 14.471-25.803-3.387-18.411-20.772-29.168-38.294-23.696m59.378 1.003c-18 7.4-23.379 27.809-11.149 42.297 6.364 7.539 17.997 11.257 27.549 8.806 7.213-1.852 12.386-3.821 14.379-5.476 2.533-2.102 4.079-8.375 2.7-10.953-1.464-2.735-2.18-2.697-6.674.353-4.747 3.221-12.174 3.424-16.966.462-4.197-2.593-7.653-9.639-7.735-15.768-.114-8.52 3.946-12.173 11.32-10.187 3.586.965 5.694 2.901 10.273 9.431 1.334 1.902 2.679 2.562 5.227 2.562 4.823 0 6.89-3.341 6.241-10.091-.644-6.701-3.41-10.384-7.876-10.488-1.864-.043-5.542-.831-8.174-1.75-6.57-2.295-12.153-2.06-19.115.802m58.724-1.034c-12.633 3.951-20.28 13.777-20.28 26.061 0 13.172 9.055 23.578 22.956 26.379 5.717 1.152 11.002.327 20.5-3.2 6.429-2.388 10.321-9.891 7.267-14.01-1.302-1.755-1.558-1.724-6.211.75-11.678 6.209-21.545 1.518-24.495-11.647-2.185-9.748 2.718-15.986 10.845-13.797 3.714 1 5.769 2.872 10.391 9.463 2.381 3.396 7.876 3.58 10.146.339 2.366-3.377 1.997-10.829-.736-14.879-1.838-2.723-2.979-3.414-5.75-3.477-1.901-.043-5.61-.831-8.242-1.75-5.627-1.965-10.62-2.036-16.391-.232m42.176-.138c-2.75.66-5.562 1.563-6.25 2.008-2.101 1.36-1.398 4.416 1.5 6.529l2.75 2.004v16.137c0 15.779-.052 16.176-2.355 17.913-2.898 2.185-2.529 5.102.864 6.818 3.142 1.59 17.312 1.579 21.991-.016 4.589-1.565 5.36-5.573 1.552-8.068L719 680.954v-15.525c0-15.275.04-15.562 2.5-17.841 3.355-3.11 3.263-6.347-.217-7.671-4.261-1.619-14.293-1.932-19.783-.616m47.192.727c-1.873 1.473-2.746 3.319-3.194 6.75-.821 6.291-3.766 14.558-9.27 26.023-3.472 7.231-5.321 9.912-7.882 11.422-3.462 2.043-3.967 3.248-2.399 5.725 1.048 1.657 11.929 2.673 17.476 1.632 4.755-.892 5.808-4.187 2.245-7.028-1.895-1.51-2.339-2.464-1.659-3.558.711-1.143 2.838-1.468 9.066-1.382 9.456.13 11.512 1.547 7.217 4.972-3.15 2.512-2.613 4.956 1.432 6.517 1.606.62 7.555.925 14.114.725 9.811-.299 11.528-.606 12.75-2.277 2.061-2.819 1.745-4.276-1.246-5.744-3.122-1.533-2.649-.754-10.515-17.305-7.421-15.612-13.074-24.624-16.846-26.852-3.764-2.224-8.168-2.075-11.289.38M467.2 640.2c-1.936 1.936-1.387 4.631 1.3 6.392 2.461 1.612 2.499 1.844 2.456 14.773-.052 15.775-1.009 21.594-3.864 23.49-2.711 1.8-2.655 3.756.158 5.47 1.715 1.045 6.785 1.348 21.325 1.272l19.075-.1 4.204-2.782c5.408-3.578 8.696-9.972 7.742-15.055-.737-3.926-4.966-9.66-7.126-9.66-2.582 0-2.599-2.058-.042-5.097 5.127-6.093 2.604-15.32-5.064-18.524-4.382-1.831-38.36-1.983-40.164-.179m22.8 13.331c0 5.026.364 6.671 1.578 7.137 2.484.953 4.877-2.262 4.877-6.555 0-4.344-1.782-7.113-4.577-7.113-1.646 0-1.878.809-1.878 6.531m52.453-.44c-1.943 3.757-1.311 8.662 2.278 17.675 3.716 9.333 8.847 12.574 12.864 8.124 3.743-4.148 1.454-18.204-4.166-25.571-1.997-2.619-3.253-3.319-5.954-3.319-2.815 0-3.708.55-5.022 3.091m207.556 10.387c-1.108 2.587-1.762 5.112-1.453 5.612.631 1.022 6.451 1.228 8.834.314 1.372-.527 1.332-1.029-.346-4.317-1.044-2.046-2.6-4.304-3.458-5.016-1.351-1.121-1.832-.662-3.577 3.407M490.204 675.75c.282 6.426.42 6.764 2.882 7.051 3.843.446 5.365-2.121 5.029-8.48-.155-2.941-2.719-5.321-5.732-5.321-2.417 0-2.468.156-2.179 6.75" fill="undefined" fill-rule="evenodd"/></svg>